<svg xmlns="http://www.w3.org/2000/svg" width="80" height="75" viewBox="0 0 80 75">
  <defs>
    <style>
      .cls-1, .cls-3 {
        fill: #9256ba;
      }

      .cls-1 {
        font-size: 20px;
        font-family: MicrosoftJhengHeiUIBold, Microsoft JhengHei UI;
      }

      .cls-2 {
        font-family: YuGothicUI-Bold, Yu Gothic UI;
        font-weight: 700;
      }
    </style>
  </defs>
  <g id="Group_25" data-name="Group 25" transform="translate(-111 -1251)">
    <text id="评课广场" class="cls-1" transform="translate(151 1321)"><tspan x="-40" y="0">评课</tspan><tspan class="cls-2" y="0">广</tspan><tspan y="0">场</tspan></text>
    <path id="Path_4" data-name="Path 4" class="cls-3" d="M107.966,64.569c-1.259-1.264-4.6-.23-9.02,2.481A23.366,23.366,0,0,0,67.093,98.893c-2.763,4.492-3.828,7.871-2.549,9.145,2.664,2.669,14.545-4.9,26.537-16.9S110.635,67.238,107.966,64.569ZM76.3,95.373a4.554,4.554,0,1,1,4.549-4.554A4.55,4.55,0,0,1,76.3,95.373ZM84.26,81.716a5.693,5.693,0,1,1,5.688-5.693A5.692,5.692,0,0,1,84.26,81.716Zm23.069-6.591c-2.946,5.024-8.21,11.615-14.833,18.243A104.053,104.053,0,0,1,75.46,107.49a23.388,23.388,0,0,0,31.869-32.365Zm-11.7,28.219a3.416,3.416,0,1,1,3.41-3.416A3.413,3.413,0,0,1,95.63,103.343Z" transform="translate(64.101 1187)"/>
  </g>
</svg>
