<svg id="Group_22" data-name="Group 22" xmlns="http://www.w3.org/2000/svg" width="39" height="32.6" viewBox="0 0 39 32.6">
  <defs>
    <style>
      .cls-1 {
        fill: #6868F8;
      }
    </style>
  </defs>
  <path id="Path_59" data-name="Path 59" class="cls-1" d="M23.2,32.6a1.6,1.6,0,0,1-1.214-.556L18.166,27.6H4a4,4,0,0,1-4-4V4A4,4,0,0,1,4,0H35a4,4,0,0,1,4,4V23.6a4,4,0,0,1-4,4H28.238l-3.826,4.444A1.6,1.6,0,0,1,23.2,32.6ZM4,3.2a.81.81,0,0,0-.8.8V23.6a.81.81,0,0,0,.8.8H18.9a1.6,1.6,0,0,1,1.214.556l3.086,3.6,3.092-3.6A1.6,1.6,0,0,1,27.5,24.4H35a.81.81,0,0,0,.8-.8V4a.81.81,0,0,0-.8-.8Z" transform="translate(0)"/>
  <path id="Path_60" data-name="Path 60" class="cls-1" d="M259.871,341.539m-2.3,0a2.3,2.3,0,1,0,2.3-2.3A2.3,2.3,0,0,0,257.571,341.539Z" transform="translate(-249.371 -328.439)"/>
  <path id="Path_61" data-name="Path 61" class="cls-1" d="M542.57,341.539m-2.3,0a2.3,2.3,0,1,0,2.3-2.3A2.3,2.3,0,0,0,540.27,341.539Z" transform="translate(-523.07 -328.439)"/>
  <path id="Path_62" data-name="Path 62" class="cls-1" d="M831.552,341.54m-2.3,0a2.3,2.3,0,1,0,2.3-2.3A2.3,2.3,0,0,0,829.252,341.54Z" transform="translate(-802.852 -328.439)"/>
</svg>
