<?xml version="1.0" standalone="no"?><!DOCTYPE svg PUBLIC "-//W3C//DTD SVG 1.1//EN" "http://www.w3.org/Graphics/SVG/1.1/DTD/svg11.dtd"><svg t="1570757364578" class="icon" viewBox="0 0 1578 1024" version="1.1" xmlns="http://www.w3.org/2000/svg" p-id="3268" xmlns:xlink="http://www.w3.org/1999/xlink" width="308.203125" height="200"><defs><style type="text/css"></style></defs><path d="M700.0064 0c-282.7264 0-512 229.2736-512 512s229.2736 512 512 512 512-229.2736 512-512c-0.1024-282.8288-229.2736-512-512-512z m260.4032 772.096c-22.1184 22.1184-59.4944 20.6848-83.456-3.2768L700.1088 591.872l-177.152 177.3568c-23.9616 23.9616-61.3376 25.3952-83.456 3.2768s-20.6848-59.4944 3.2768-83.456l177.3568-177.3568-176.9472-176.8448c-23.9616-23.9616-25.3952-61.3376-3.2768-83.456s59.4944-20.6848 83.456 3.2768l176.8448 176.9472 176.4352-176.4352c23.9616-23.9616 61.3376-25.3952 83.456-3.2768s20.6848 59.4944-3.2768 83.456L780.288 511.7952l176.8448 176.8448c23.9616 24.064 25.3952 61.3376 3.2768 83.456z" p-id="3269" fill="#B0B3BF"></path></svg>