<svg xmlns="http://www.w3.org/2000/svg" width="36.78" height="37.876" viewBox="0 0 36.78 37.876">
  <defs>
    <style>
      .cls-1 {
        fill: none;
        stroke: #9256ba;
        stroke-width: 3px;
      }
    </style>
  </defs>
  <g id="Group_20" data-name="Group 20" transform="translate(-77.841 -63.79)">
    <path id="Path_57" data-name="Path 57" class="cls-1" d="M370.208,79.259h-9.287c3.6-13.291-2.479-13.969-2.479-13.969-2.576,0-2.042,2.037-2.237,2.377,0,6.5-6.9,11.593-6.9,11.593V97.691c0,1.819,2.479,2.475,3.452,2.475h13.954c1.313,0,2.383-3.444,2.383-3.444,3.452-11.739,3.452-15.231,3.452-15.231a2.107,2.107,0,0,0-2.334-2.232Zm0,0" transform="translate(-259.421)"/>
    <path id="Path_58" data-name="Path 58" class="cls-1" d="M86.069,423.3H80.508a1.132,1.132,0,0,0-1.166,1.128l1.148,18.589a1.16,1.16,0,0,0,1.185,1.183h4.813c1,0,.994-.783.994-.783V424.709a1.368,1.368,0,0,0-1.413-1.41Zm0,0" transform="translate(0 -344.034)"/>
  </g>
</svg>
