<svg xmlns="http://www.w3.org/2000/svg" width="41" height="41" viewBox="0 0 41 41">
  <g id="组_109" data-name="组 109" transform="translate(-78.841 -64.79)">
    <path id="路径_57" data-name="路径 57" d="M375.8,81.312H364.032c4.562-15.243-3.143-16.022-3.143-16.022-3.266,0-2.589,2.336-2.836,2.726,0,7.455-8.752,13.3-8.752,13.3v21.14c0,2.087,3.143,2.838,4.376,2.838h17.689c1.665,0,3.021-3.95,3.021-3.95,4.376-13.463,4.376-17.469,4.376-17.469,0-2.782-2.958-2.559-2.958-2.559Zm0,0" transform="translate(-259.421)" fill="#7273f7" stroke="#7273f7" stroke-width="1"/>
    <path id="路径_58" data-name="路径 58" d="M86.069,423.3H80.508a1.132,1.132,0,0,0-1.166,1.128l1.148,18.589a1.16,1.16,0,0,0,1.185,1.183h4.813c1,0,.994-.783.994-.783V424.709a1.368,1.368,0,0,0-1.413-1.41Zm0,0" transform="translate(0 -338.91)" fill="#7273f7" stroke="#7273f7" stroke-width="1"/>
  </g>
</svg>
