<svg xmlns="http://www.w3.org/2000/svg" width="45" height="44" viewBox="0 0 45 44">
  <defs>
    <style>
      .cls-1 {
        fill: #6868f8;
      }

      .cls-2 {
        fill: #fff;
      }
    </style>
  </defs>
  <g id="Group_36" data-name="Group 36" transform="translate(-61 -944)">
    <rect id="Rectangle_43" data-name="Rectangle 43" class="cls-1" width="45" height="44" rx="10" transform="translate(61 944)"/>
    <path id="Path_98" data-name="Path 98" class="cls-2" d="M87.652,132.016l.184.184,3.619,3.619H84.217l-6.344.006H77.7c-7.6,0-13.762-5.514-13.762-12.312S70.1,111.2,77.7,111.2s13.762,5.514,13.762,12.312A11.607,11.607,0,0,1,87.652,132.016Zm-5.609-6.331a2.172,2.172,0,1,0-2.172-2.172A2.172,2.172,0,0,0,82.042,125.684Zm-8.691,0a2.172,2.172,0,1,0-2.172-2.172,2.172,2.172,0,0,0,2.172,2.172Z" transform="translate(5.149 840.8)"/>
  </g>
</svg>
