<svg xmlns="http://www.w3.org/2000/svg" width="45" height="44" viewBox="0 0 45 44">
  <defs>
    <style>
      .cls-1 {
        fill: #6868f8;
        stroke: #6868f8;
      }

      .cls-2 {
        fill: #fff;
      }

      .cls-3 {
        stroke: none;
      }

      .cls-4 {
        fill: none;
      }
    </style>
  </defs>
  <g id="Group_33" data-name="Group 33" transform="translate(-189 -522.171)">
    <g id="Rectangle_40" data-name="Rectangle 40" class="cls-1" transform="translate(189 522.171)">
      <rect class="cls-3" width="45" height="44" rx="10"/>
      <rect class="cls-4" x="0.5" y="0.5" width="44" height="43" rx="9.5"/>
    </g>
    <path id="Path_95" data-name="Path 95" class="cls-2" d="M141.193,72.318V89.609a3.68,3.68,0,0,1-3.677,3.677H119.133a3.68,3.68,0,0,1-3.677-3.677V67.549a3.68,3.68,0,0,1,3.677-3.677h22.061v4.6h-19.13a2.02,2.02,0,0,0-1.408.6,2.05,2.05,0,0,0,0,2.845,2.016,2.016,0,0,0,1.408.6h10.312v7.526a2.463,2.463,0,0,1,.273.071.29.29,0,0,0,.273-.071l2.212-1.637a1.182,1.182,0,0,1,.532-.143.534.534,0,0,1,.389.143l2.212,1.637h.172a.35.35,0,0,0,.258-.116.358.358,0,0,0,.116-.258V72.318h2.38Z" transform="translate(82.544 465.585)"/>
  </g>
</svg>
