<svg xmlns="http://www.w3.org/2000/svg" width="80" height="74" viewBox="0 0 80 74">
  <defs>
    <style>
      .cls-1, .cls-3 {
        fill: #6868F8;
      }

      .cls-1 {
        font-size: 20px;
        font-family: MicrosoftJhengHeiUIBold, Microsoft JhengHei UI;
      }

      .cls-2 {
        font-family: AdobeGothicStd-Bold, Adobe Gothic Std;
        font-weight: 700;
      }
    </style>
  </defs>
  <g id="Group_26" data-name="Group 26" transform="translate(-345 -1251)">
    <text id="选课助手" class="cls-1" transform="translate(385 1320)"><tspan x="-40" y="0">选课</tspan><tspan class="cls-2" y="0">助手</tspan></text>
    <path id="Path_12" data-name="Path 12" class="cls-3" d="M141.893,112.616a8.456,8.456,0,0,1-.911-.338,2.069,2.069,0,0,0-.948,1.772,1.866,1.866,0,1,0,3.718,0,2.128,2.128,0,0,0-.512-1.4l-1.348-.034Zm16.116-34.785h-6.06l2.3-3.34a1.774,1.774,0,0,0,.59.1,2.1,2.1,0,1,0-1.923-2.091,2.2,2.2,0,0,0,.373,1.235l-2.921,4.1h-11.2a2.9,2.9,0,0,0,.865-2.092,2.61,2.61,0,1,0-5.205,0,2.9,2.9,0,0,0,.865,2.092h-4.957a6.09,6.09,0,0,0-6.2,5.975L126.4,99.7a6.09,6.09,0,0,0,6.2,5.975h23.552a6.091,6.091,0,0,0,6.2-5.975l1.859-15.892a6.088,6.088,0,0,0-6.2-5.975Zm-21.8,17.563a2.525,2.525,0,1,1,2.616-2.522,2.573,2.573,0,0,1-2.616,2.522Zm-1.308,11a2.249,2.249,0,0,0-.321,1.134,3.221,3.221,0,0,0,2.254,2.7l.007.029a4.784,4.784,0,0,1-.028-.519,4.9,4.9,0,0,1,.475-3.346H134.9Zm17.049,0a8.617,8.617,0,0,1,.382,3.295,3.343,3.343,0,0,0,2.083-3,2.84,2.84,0,0,0-.017-.3Zm-3.631,5.871c-1.713.355-1.714.474-1.714.474l-.476-.011a2.026,2.026,0,0,0-.39,1.206,1.743,1.743,0,1,0,3.47,0,1.949,1.949,0,0,0-.891-1.669Zm-10.149-5.871a5.069,5.069,0,0,0-.737,2.629A5.58,5.58,0,0,0,143.2,114.4h2.727a5.582,5.582,0,0,0,5.766-5.376,5.08,5.08,0,0,0-.737-2.631H138.167l0,0Zm14.522-11a2.525,2.525,0,1,1,2.616-2.522,2.573,2.573,0,0,1-2.616,2.522v0Z" transform="translate(236.461 1180.59)"/>
  </g>
</svg>
