<svg xmlns="http://www.w3.org/2000/svg" width="44.995" height="45" viewBox="0 0 44.995 45">
  <defs>
    <style>
      .cls-1 {
        fill: #9256ba;
        stroke: #9256ba;
        stroke-width: 3px;
      }
    </style>
  </defs>
  <path id="Path_67" data-name="Path 67" class="cls-1" d="M153.995,120.493v24.814A8.6,8.6,0,0,1,145.4,153.9H120.593A8.6,8.6,0,0,1,112,145.312V120.493a8.6,8.6,0,0,1,8.593-8.593h24.814a8.594,8.594,0,0,1,8.588,8.593Zm-8.588-4.772H120.593a4.639,4.639,0,0,0-3.37,1.4,4.59,4.59,0,0,0-1.4,3.37V145.3a4.619,4.619,0,0,0,1.4,3.37,4.562,4.562,0,0,0,3.37,1.4h24.814a4.767,4.767,0,0,0,4.766-4.766V120.493a4.776,4.776,0,0,0-4.766-4.772Z" transform="translate(-110.5 -110.4)"/>
</svg>
