<svg xmlns="http://www.w3.org/2000/svg" width="44" height="44" viewBox="0 0 44 44">
  <g id="未选中课程" fill="#ebedf5">
    <path d="M 22 43 C 19.16457939147949 43 16.41449928283691 42.44490051269531 13.8261604309082 41.35012817382813 C 11.3256196975708 40.29248809814453 9.079689979553223 38.77817153930664 7.150760173797607 36.84923934936523 C 5.221829891204834 34.92031860351563 3.707520008087158 32.67438888549805 2.649869918823242 30.1738395690918 C 1.555099964141846 27.58550071716309 1 24.83542060852051 1 22 C 1 19.16457939147949 1.555099964141846 16.41449928283691 2.649869918823242 13.8261604309082 C 3.707520008087158 11.3256196975708 5.221829891204834 9.079689979553223 7.150760173797607 7.150760173797607 C 9.079689979553223 5.221829891204834 11.3256196975708 3.707520008087158 13.8261604309082 2.649869918823242 C 16.41449928283691 1.555099964141846 19.16457939147949 1 22 1 C 24.83542060852051 1 27.58550071716309 1.555099964141846 30.1738395690918 2.649869918823242 C 32.67438888549805 3.707520008087158 34.92031860351563 5.221829891204834 36.84923934936523 7.150760173797607 C 38.77817153930664 9.079689979553223 40.29248809814453 11.3256196975708 41.35012817382813 13.8261604309082 C 42.44490051269531 16.41449928283691 43 19.16457939147949 43 22 C 43 24.83542060852051 42.44490051269531 27.58550071716309 41.35012817382813 30.1738395690918 C 40.29248809814453 32.67438888549805 38.77817153930664 34.92031860351563 36.84923934936523 36.84923934936523 C 34.92031860351563 38.77817153930664 32.67438888549805 40.29248809814453 30.1738395690918 41.35012817382813 C 27.58550071716309 42.44490051269531 24.83542060852051 43 22 43 Z" stroke="none"/>
    <path d="M 22 2 C 19.29912948608398 2 16.68012046813965 2.528518676757813 14.2157096862793 3.570880889892578 C 11.83435821533203 4.578098297119141 9.695270538330078 6.020450592041016 7.857860565185547 7.857860565185547 C 6.020450592041016 9.695270538330078 4.578098297119141 11.83435821533203 3.570880889892578 14.2157096862793 C 2.528518676757813 16.68012046813965 2 19.29912948608398 2 22 C 2 24.70085906982422 2.528518676757813 27.31987953186035 3.570880889892578 29.7842903137207 C 4.578098297119141 32.16563034057617 6.020450592041016 34.30471801757813 7.857860565185547 36.14212799072266 C 9.695270538330078 37.97954940795898 11.83435821533203 39.42189788818359 14.2157096862793 40.42911911010742 C 16.68012046813965 41.47148132324219 19.29912948608398 42 22 42 C 24.70085906982422 42 27.31986999511719 41.47148132324219 29.7842903137207 40.42911911010742 C 32.16563034057617 39.42189788818359 34.30471801757813 37.97954940795898 36.14212799072266 36.14212799072266 C 37.97954940795898 34.30471801757813 39.42189788818359 32.16563034057617 40.42911911010742 29.7842903137207 C 41.47148132324219 27.31986999511719 42 24.70085906982422 42 22 C 42 19.29912948608398 41.47148132324219 16.68012046813965 40.42911911010742 14.2157096862793 C 39.42189788818359 11.83435821533203 37.97954940795898 9.695270538330078 36.14212799072266 7.857860565185547 C 34.30471801757813 6.020450592041016 32.16563034057617 4.578098297119141 29.7842903137207 3.570880889892578 C 27.31987953186035 2.528518676757813 24.70085906982422 2 22 2 M 22 0 C 34.15026092529297 0 44 9.8497314453125 44 22 C 44 34.15026092529297 34.15026092529297 44 22 44 C 9.8497314453125 44 0 34.15026092529297 0 22 C 0 9.8497314453125 9.8497314453125 0 22 0 Z" stroke="none" fill="#6e66ee"/>
  </g>
</svg>
